<svg width="24" height="24" viewBox="0 0 24 24" fill="none" xmlns="http://www.w3.org/2000/svg">
<path d="M12 0C5.373 0 0 5.357 0 11.963C0 18.569 5.373 23.926 12 23.926C18.628 23.926 24 18.569 24 11.963C24 5.357 18.627 0 12 0ZM11.459 4.8C13.369 4.67 15.335 5.195 16.891 6.734C18.317 8.171 19.401 10.174 19.379 12.051H21.512L17.068 17.014L12.623 12.051H14.936C14.935 10.327 14.509 9.309 13.156 7.975C11.831 6.639 10.489 5.865 8.178 5.672C9.20853 5.18164 10.3209 4.88533 11.459 4.8ZM6.934 6.913L11.379 11.876H9.066C9.066 13.6 9.492 14.618 10.844 15.952C12.17 17.288 13.511 18.064 15.822 18.257C13.138 19.525 9.602 19.655 7.112 17.193C5.685 15.756 4.6 13.753 4.623 11.876H2.488L6.934 6.913Z" fill="black"/>
</svg>
