<svg width="16" height="16" viewBox="0 0 16 16" fill="none" xmlns="http://www.w3.org/2000/svg">
<g clip-path="url(#clip0_65_113)">
<path d="M15.2 0L11 4.2V3C11 1.3 9.7 0 8 0C6.3 0 5 1.3 5 3V7C5 7.9 5.4 8.7 6 9.2L5.2 10C4.5 9.4 4 8.5 4 7.5V5C3.4 5 3 5.4 3 6V7.5C3 8.8 3.6 9.9 4.5 10.7L0 15.3V16H0.7L16 0.6V0H15.2ZM12.5 5.1L12 5.6V7.5C12 9.4 10.2 11 8.2 11H7.8C7.5 11 7.2 10.9 6.9 10.9L6 11.6C6.3 11.7 6.6 11.8 7 11.9V14C4 14 4.5 16 4.5 16H11.5C11.5 16 12 14 9 14V11.9C11.2 11.5 13 9.7 13 7.5V6C13 5.6 12.8 5.3 12.5 5.1Z" fill="white"/>
<path d="M11 6.99998V6.59998L7.69995 9.99998H7.99995C9.69995 9.99998 11 8.59998 11 6.99998Z" fill="white"/>
</g>
<defs>
<clipPath id="clip0_65_113">
<rect width="16" height="16" fill="white"/>
</clipPath>
</defs>
</svg>
