<svg width="40" height="41" viewBox="0 0 40 41" fill="none" xmlns="http://www.w3.org/2000/svg">
<path d="M0 20C0 8.95431 8.95431 0 20 0C31.0457 0 40 8.95431 40 20C40 31.0457 31.0457 40 20 40C8.95431 40 0 31.0457 0 20Z" fill="black"/>
<g filter="url(#filter0_d_72_225)">
<line x1="32.0114" y1="15.0587" x2="32.1331" y2="31.9995" stroke="white" stroke-width="2"/>
</g>
<line x1="17.3708" y1="15.164" x2="17.4925" y2="32.1047" stroke="white" stroke-width="2"/>
<line x1="24.6406" y1="8.05288" x2="24.7623" y2="24.9936" stroke="white" stroke-width="2"/>
<line x1="8.99997" y1="8.16518" x2="9.12167" y2="25.1059" stroke="white" stroke-width="2"/>
<path d="M16.8249 13.7562L24.392 8.08998L16.7845 8.14463L9.17705 8.19928L16.8249 13.7562Z" fill="white"/>
<path d="M24.4831 20.7602L32.0503 15.0939L24.4428 15.1486L16.8353 15.2032L24.4831 20.7602Z" fill="white"/>
<defs>
<filter id="filter0_d_72_225" x="27.0115" y="15.0515" width="10.1216" height="24.9552" filterUnits="userSpaceOnUse" color-interpolation-filters="sRGB">
<feFlood flood-opacity="0" result="BackgroundImageFix"/>
<feColorMatrix in="SourceAlpha" type="matrix" values="0 0 0 0 0 0 0 0 0 0 0 0 0 0 0 0 0 0 127 0" result="hardAlpha"/>
<feOffset dy="4"/>
<feGaussianBlur stdDeviation="2"/>
<feComposite in2="hardAlpha" operator="out"/>
<feColorMatrix type="matrix" values="0 0 0 0 0 0 0 0 0 0 0 0 0 0 0 0 0 0 0.25 0"/>
<feBlend mode="normal" in2="BackgroundImageFix" result="effect1_dropShadow_72_225"/>
<feBlend mode="normal" in="SourceGraphic" in2="effect1_dropShadow_72_225" result="shape"/>
</filter>
</defs>
</svg>
